<?xml version="1.0" encoding="utf-8"?>
<!-- Generator: Adobe Illustrator 18.1.1, SVG Export Plug-In . SVG Version: 6.00 Build 0)  -->
<svg version="1.1" id="Layer_1" xmlns="http://www.w3.org/2000/svg" xmlns:xlink="http://www.w3.org/1999/xlink" x="0px" y="0px"
	 viewBox="299 10.3 1441 570" enable-background="new 299 10.3 1441 570" xml:space="preserve">
<linearGradient id="SVGID_1_" gradientUnits="userSpaceOnUse" x1="1019" y1="587.5601" x2="1019" y2="17.56" gradientTransform="matrix(1 0 0 -1 0 597.84)">
	<stop  offset="0" style="stop-color:#F4F7FF"/>
	<stop  offset="1" style="stop-color:#F1F5FF"/>
</linearGradient>
<rect x="299" y="10.3" fill="url(#SVGID_1_)" width="1440" height="570"/>
<g>
	<path fill="#FFFFFF" d="M1738.5,417.3c-30.7,0-55.5,24.6-55.5,55h55.5V417.3z"/>
</g>
<circle fill="#5283FF" cx="999" cy="548.3" r="4"/>
<circle fill="#D1D6E3" cx="1019" cy="548.3" r="4"/>
<circle fill="#D1D6E3" cx="1039" cy="548.3" r="4"/>
<path fill="none" stroke="#5F82FF" stroke-width="3" d="M299,537.8c202.7,0,347.5-34.9,480.3-32.8C1088.7,510,942.6,363,1259.7,363
	c345.2,0,262.6-129.7,480.3-129.7"/>
<linearGradient id="SVGID_2_" gradientUnits="userSpaceOnUse" x1="1019.5" y1="17.117" x2="1019.5" y2="472.555" gradientTransform="matrix(1 0 0 -1 0 597.84)">
	<stop  offset="0" style="stop-color:#4B71FF;stop-opacity:0"/>
	<stop  offset="1" style="stop-color:#6B89F8"/>
</linearGradient>
<path fill="url(#SVGID_2_)" fill-opacity="0.4" d="M779.3,505c-132.9-2.1-277.6,32.8-480.3,32.8v42.5h1441v-347
	c-217.8,0-135.1,129.7-480.3,129.7C942.6,363,1088.7,510,779.3,505z"/>
<line fill="none" stroke="#D8E0F7" x1="1223.5" y1="315.3" x2="1223.5" y2="504.3"/>
<g>
	<circle fill="#FFFFFF" cx="1223.5" cy="363.8" r="7.5"/>
	<circle fill="none" stroke="#5E80FE" stroke-width="2" cx="1223.5" cy="363.8" r="6.5"/>
</g>
<line fill="none" stroke="#D8E0F7" x1="1631.5" y1="115.3" x2="1631.5" y2="432.3"/>
<g>
	<circle fill="#FFFFFF" cx="1631.5" cy="249.8" r="7.5"/>
	<circle fill="none" stroke="#5E80FE" stroke-width="2" cx="1631.5" cy="249.8" r="6.5"/>
</g>
<line fill="none" stroke="#D8E0F7" x1="814.5" y1="493.3" x2="814.5" y2="552.3"/>
<line fill="none" stroke="#D8E0F7" x1="406.5" y1="377.3" x2="406.5" y2="567.3"/>
<g>
	<circle fill="#FFFFFF" cx="406.5" cy="534.8" r="7.5"/>
	<circle fill="none" stroke="#5E80FE" stroke-width="2" cx="406.5" cy="534.8" r="6.5"/>
</g>
<g>
	<path fill="#FFFFFF" d="M563.7,408.8c-6.5,0-11.7,5.3-11.7,11.9h23.4C575.4,414.1,570.2,408.8,563.7,408.8z"/>
</g>
<g>
	<path fill="#FFFFFF" d="M609.7,414.7c-9,0-16.3,7.4-16.3,16.5H626C626,422.1,618.7,414.7,609.7,414.7z"/>
</g>
<g>
	<path fill="#FFFFFF" d="M585.1,406.5c-13.7,0-24.8,11.1-24.8,24.8h49.6C609.9,417.6,598.8,406.5,585.1,406.5z"/>
</g>
<g>
	<path fill="#FFFFFF" d="M1504,504.7c-18.8,0-34,15.5-34,34.5h68C1538,520.2,1522.8,504.7,1504,504.7z"/>
</g>
<g>
	<path fill="#FFFFFF" d="M1480.7,475.3c-13.1,0-23.7,10.8-23.7,24.1h47.4C1504.4,486.1,1493.8,475.3,1480.7,475.3z"/>
</g>
<g>
	<path fill="#FFFFFF" d="M1435.7,487.5c-28.6,0-51.7,23.2-51.7,51.8h103.5C1487.5,510.7,1464.3,487.5,1435.7,487.5z"/>
</g>
<g>
	<path fill="#FFFFFF" d="M1561.9,63.3c-21.5,0-38.9,17.5-38.9,39h77.8C1600.8,80.7,1583.4,63.3,1561.9,63.3z"/>
</g>
<g>
	<path fill="#FFFFFF" d="M1578.5,96.3c-12.4,0-22.5,10.3-22.5,23h45C1601,106.6,1590.9,96.3,1578.5,96.3z"/>
</g>
<g>
	<path fill="#FFFFFF" d="M574.5,102.3c-12.4,0-22.5,10.3-22.5,23h45C597,112.6,586.9,102.3,574.5,102.3z"/>
</g>
<g>
	<path fill="#FFFFFF" d="M374,262.3c0-42-33.4-76-74.5-76v76H374z"/>
</g>
<g>
	<path fill="#FFFFFF" d="M616.1,396.3c-5.5,0-9.9,4.6-9.9,10.2H626C626,400.8,621.6,396.3,616.1,396.3z"/>
</g>
<g>
	<path fill="#FFFFFF" d="M1522.5,47.3c-8.6,0-15.5,7.2-15.5,16h31C1538,54.4,1531.1,47.3,1522.5,47.3z"/>
</g>
<g>
	<circle fill="#FFFFFF" cx="814.5" cy="504.8" r="7.5"/>
	<circle fill="none" stroke="#5E80FE" stroke-width="2" cx="814.5" cy="504.8" r="6.5"/>
</g>
<g>
	<path fill="#FFFFFF" d="M861,418.3c0-1.7-1.3-3-3-3h-86c-1.7,0-3,1.3-3,3v57.3c0,1.7,1.3,3,3,3h36.7c1,0,1.9,0.5,2.5,1.3l1.4,2
		c1.2,1.8,3.8,1.8,5,0l1.4-2c0.6-0.8,1.5-1.3,2.5-1.3H858c1.7,0,3-1.3,3-3V418.3z"/>
	<defs>
		<filter id="Adobe_OpacityMaskFilter" filterUnits="userSpaceOnUse" x="768" y="414.3" width="94" height="69.9">
			<feColorMatrix  type="matrix" values="1 0 0 0 0  0 1 0 0 0  0 0 1 0 0  0 0 0 1 0"/>
		</filter>
	</defs>
	<mask maskUnits="userSpaceOnUse" x="768" y="414.3" width="94" height="69.9" id="path-38-inside-1">
		<path fill="#FFFFFF" filter="url(#Adobe_OpacityMaskFilter)" d="M861,418.3c0-1.7-1.3-3-3-3h-86c-1.7,0-3,1.3-3,3v57.3
			c0,1.7,1.3,3,3,3h36.7c1,0,1.9,0.5,2.5,1.3l1.4,2c1.2,1.8,3.8,1.8,5,0l1.4-2c0.6-0.8,1.5-1.3,2.5-1.3H858c1.7,0,3-1.3,3-3V418.3z"
			/>
	</mask>
	<path mask="url(#path-38-inside-1)" fill="#D8E0F7" d="M818.8,479.9l-0.8-0.6L818.8,479.9z M812.5,481.9l0.8-0.6L812.5,481.9z
		 M811.2,479.9l-0.8,0.6L811.2,479.9z M772,416.3h86v-2h-86V416.3z M770,475.5v-57.3h-2v57.3H770z M808.7,477.5H772v2h36.7V477.5z
		 M813.3,481.3l-1.4-2l-1.7,1.1l1.4,2L813.3,481.3z M818,479.3l-1.4,2l1.7,1.1l1.4-2L818,479.3z M858,477.5h-36.7v2H858V477.5z
		 M860,418.3v57.3h2v-57.3H860z M858,479.5c2.2,0,4-1.8,4-4h-2c0,1.1-0.9,2-2,2V479.5z M819.7,480.4c0.4-0.6,1-0.9,1.7-0.9v-2
		c-1.3,0-2.6,0.7-3.3,1.8L819.7,480.4z M811.7,482.4c1.6,2.3,5,2.3,6.6,0l-1.7-1.1c-0.8,1.2-2.5,1.2-3.3,0L811.7,482.4z
		 M808.7,479.5c0.7,0,1.3,0.3,1.7,0.9l1.7-1.1c-0.7-1.1-2-1.8-3.3-1.8V479.5z M768,475.5c0,2.2,1.8,4,4,4v-2c-1.1,0-2-0.9-2-2H768z
		 M858,416.3c1.1,0,2,0.9,2,2h2c0-2.2-1.8-4-4-4V416.3z M772,414.3c-2.2,0-4,1.8-4,4h2c0-1.1,0.9-2,2-2V414.3z"/>
	<path fill="none" stroke="#5F82FF" stroke-width="4" stroke-linecap="round" stroke-linejoin="round" d="M798,448.5
		c0-9.5,7.7-17.2,17.1-17.2c1.7,0,3.4,0.3,5,0.8"/>
	<path fill="#5F82FF" d="M811.4,452.2c2,2.1,5.3,2.1,7.4,0c2-2.1,10.5-16.5,9.7-17.2c-0.7-0.8-15.1,7.7-17.1,9.8
		C809.4,446.9,809.4,450.2,811.4,452.2z M815.1,450c0.8,0,1.5-0.7,1.5-1.5s-0.7-1.5-1.5-1.5c-0.8,0-1.5,0.7-1.5,1.5
		S814.3,450,815.1,450z"/>
	<ellipse fill="#5F82FF" cx="800.2" cy="457.5" rx="1.5" ry="1.5"/>
	<ellipse fill="#5F82FF" cx="806.2" cy="463.5" rx="1.5" ry="1.5"/>
	<ellipse fill="#5F82FF" cx="815.1" cy="465.8" rx="1.5" ry="1.5"/>
	<ellipse fill="#5F82FF" cx="824.1" cy="463.5" rx="1.5" ry="1.5"/>
	<ellipse fill="#5F82FF" cx="829.3" cy="457.5" rx="1.5" ry="1.5"/>
	<ellipse fill="#5F82FF" cx="831.5" cy="448.5" rx="1.5" ry="1.5"/>
</g>
</svg>
